<?xml version="1.0" encoding="utf-8"?>
<!-- Generator: Adobe Illustrator 25.2.1, SVG Export Plug-In . SVG Version: 6.00 Build 0)  -->
<svg version="1.1" id="svg" xmlns="http://www.w3.org/2000/svg" xmlns:xlink="http://www.w3.org/1999/xlink" x="0px" y="0px"
	 viewBox="0 0 1150 782" style="enable-background:new 0 0 1150 782;" xml:space="preserve">
<style type="text/css">
	.st0{fill-rule:evenodd;clip-rule:evenodd;fill:#BD1E2D;}
	.st1{fill-rule:evenodd;clip-rule:evenodd;fill:#7E807F;}
	.st2{fill-rule:evenodd;clip-rule:evenodd;fill:#FF7D7D;}
</style>
<path class="st0" d="M609.7,20.4c56.6,7.4,97.4,70.2,95.2,124.4c3.7,24.4-43.6,132.3-51,73.9c-31.1-82-141.2-73-183.9-9.6
	c-52.6,69.9-37.6,182.2,39.7,229.6c-39.3-12.2-53.8-21.2-88.1-53.4C276.5,242.2,399.2-10.3,609.7,20.4"/>
<path class="st1" d="M682.2,36.8c161,56.7,81.2,259.2-19.8,255.6c55.2-32.1,79.1-105.9,67.7-164.2c-5-35.9-33.5-76.7-63-97.1
	C667.2,30.6,673.2,32.9,682.2,36.8"/>
<path class="st1" d="M793.6,148.5C883,315.7,639.3,395,566.7,300.3c104.9,48.1,236.4-41.4,220.8-158.1
	C785.5,128.3,790.5,143,793.6,148.5"/>
<path class="st1" d="M498.6,297.1c3.9,106.8,146.2,179.7,32.6,140.8c-63.6-36.5-85.9-128.8-40-189.9
	C500.3,229,495,293.3,498.6,297.1"/>
<path class="st1" d="M523.7,304.3c37.7,69.8,110.8,111.9,191,107.4C537.7,553.3,485.4,207,523.7,304.3"/>
<path class="st1" d="M553.7,312.7c69.7,61.1,188,52,249.5-19.3c-18.4,58.6-61.7,127.2-132.3,102.7
	C617.7,404.8,497.9,268.2,553.7,312.7"/>
<path class="st2" d="M405.2,367c0,0.2,0.8,1,1.8,1.8C410.7,372.1,404.8,364.8,405.2,367"/>
<path class="st1" d="M163.3,502.1c23.3,1.5,52,24.2,61.9,43.3c0,0.9-23.5,15.3-24.9,15.3C170.5,506,85.2,535.9,99.1,597.9
	c5.5,47.7,71.6,58.6,96.6,21.3c6.6-10.5,7.7-0.6,18.2,3c9.8,6.9,14,3.5,6.7,13.5C96.4,772.3-19.3,499.6,163.3,502.1"/>
<path class="st1" d="M530.1,501.7c24,2,53.6,24.3,63,43.9c-0.4,1-23.5,15.1-24.8,15.1c-26.9-49-105.2-31.8-102,27.4
	c-1.9,40,40.3,64.4,75.4,49.3c29.1-15.3,18-33.3,51.3-8.3C476.8,781.4,343.3,501.9,530.1,501.7"/>
<path class="st1" d="M829.9,512.6c50.8,140.8,29.1,126.1,79.8-5c64.6-13.9,12.9,24.1-15.3,131c-8.7,20-5.4,32.4-25.5,29
	c-32.7-2-21.1-36.1-60.7-128.3c-4.9-27.6-25.6-35.9,4.2-33.5C818.5,506.6,829.5,503.2,829.9,512.6"/>
<path class="st1" d="M1031.5,511.4c16.7,41.4,46.8,120,59.4,154.5c4.1,2.9-26,1.2-30.4,1.8c-10-23.7-34.5-89.9-43.8-114.4
	c-0.6-20.8-25,54.1-23.9,52.8c0.9,3,11.3,23.9,12.5,25.1c-23.9,10.2-21.9-10.6-35.2,30.1c-0.2,11.8-30.5,5-33.9,5.8
	c0-0.4,1.3-4.1,3-8.3c13.4-36.1,46.4-117.1,58.3-153.1C1006.5,507.9,1028.9,499.9,1031.5,511.4"/>
<path class="st1" d="M406.3,550.9c-79.6-145-252.2,61.4-101.1,117.5C372.3,692,438.9,613.5,406.3,550.9z M330.2,640.6
	c-60,3.2-70.9-89-18-105.5C388.3,509.4,410.2,640.1,330.2,640.6z"/>
<path class="st1" d="M757.3,528.3c-55.9-65.6-164.6-1.3-142.8,78.3C651.5,744.1,854.6,632.6,757.3,528.3z M742.4,614.1
	c-30.2,56.4-117.6,13.7-94.7-45.7C672.2,494.5,780.1,549,742.4,614.1z"/>
<path class="st1" d="M113.6,709.6c4.8,8.1-17.5,1-18.2,6.9c-13.9,19.6,1.5,32.7,19.3,31.8C81,774,70.8,693.9,113.6,709.6"/>
<path class="st1" d="M357,708.9c1.5,1.9-0.3,5.8-2.7,5.8C347.7,714.2,352.3,704,357,708.9"/>
<path class="st1" d="M915.3,709.8c1.6-0.7,0,35,0.8,35.6c2.1,2.1,12.4,6.2,2.3,7C906.2,760,906.9,696.6,915.3,709.8"/>
<path class="st1" d="M980.1,709.2c-11.6,43.2-18.1,64.1-34,1.4c-0.2-1,0.6-1.6,2.6-1.8c6.1-0.8,8,19.6,10.6,25.5
	c3.4,14.1,4.5,13.1,10.5-10.2C973.6,713.5,971.7,705.2,980.1,709.2"/>
<path class="st1" d="M1027.2,726.9l0.5,18.7c2.7,1.4,10,5.9,3.6,6.8C1010,759.5,1027.6,668.8,1027.2,726.9"/>
<path class="st1" d="M1048,708.8c3,1.6-2,40.1,4.9,39.9c6.6,5.7-10.6,4.6-9.7-3.6C1043.5,739.5,1038,703.3,1048,708.8"/>
<path class="st1" d="M489.5,709.4c1,9.3-20.6,0.1-21.2,10.5c-8.5,23.5,4.7,25.9,21.4,29.2C454.5,770.2,446.9,695.7,489.5,709.4"/>
<path class="st1" d="M618.5,721.6c12.7,5.8-10.4-3.1-3.4,20c0.6,5.3,0.7,5.5,4.5,6.4c10.5,3.2-5.2,6.9-7.9,2.3
	c-4.1,1.1-2.5-25.1-5.2-25.3c-4.2,0.1,4-7.3,7.3-11.5C614.5,717.1,613.4,721.8,618.5,721.6"/>
<path class="st1" d="M333.2,718.1c-1.5,5.6,7.1,2.3,7.8,5.8c0.3,1.4-0.4,1.8-3.7,1.8c-8.3-1.8-2.4,16.7-4.1,22
	c1.8,0.4,8.7,0.7,7.8,2.9c-19.9,11.6-9-23.6-17.8-25.5C323.7,723.2,333.5,708.3,333.2,718.1"/>
<path class="st1" d="M735.7,718.7c-3,5.5,10.6,0.7,7.8,5.5c-0.5,1.8-6.3,1.4-8.3,1.4c1.2,7.1-3.4,21.9,5,22.6
	c5.7,1.6,4.5,3.9-1.9,3.9c-12.8,5.5-6.9-23.3-10.6-26.5C721.4,726.8,739.1,708.1,735.7,718.7"/>
<path class="st1" d="M593.5,721.8c6.9,4.7-14.7,2.1-12.3,7.5c13.2,5.9,25.2,20.7,1.8,23.3c-9.4,0.8-10.7-5.9-2-4.4
	c4.2,0.6,5.2,0.3,7.7-1.8c9.8-6.4-19.3-12.1-12.3-19.5C579.1,721.3,587.6,718.8,593.5,721.8"/>
<path class="st1" d="M716.5,722.5c3.7,4.7-12.9,1.6-13.2,5.7c-7.1,13.2,1.7,21.4,13.8,20.7C695.3,769.7,681.7,709.7,716.5,722.5"/>
<path class="st1" d="M170,723.6c4.5-3.6,15-2.8,5,3.3c-5.4,2.3-6,3.6-6.1,14.9c-0.2,9.6-0.3,10.3-2.2,10.6
	C161.3,756.3,158,710.9,170,723.6"/>
<path class="st1" d="M195.1,722.6c23.2-11.8,30.1,29.5,5.9,29.8c-11-2.8-1.6,14.1-10,14.2C189.3,770.7,184.8,711.5,195.1,722.6"/>
<path class="st1" d="M272.3,723.6c11-5.3,13.5,1,2.2,5.3c-4.1-0.1,0.2,28.5-6.7,23.4C266.5,753.4,262.2,710.6,272.3,723.6"/>
<path class="st1" d="M355.7,721.6c4.4,2.5,4.2,29.5-0.7,30.8c-3.7,0.4-4.2-2.2-3.5-15.6c0.5-9.7,0.5-10.5-1.3-11
	C344,723.3,351.5,718.8,355.7,721.6"/>
<path class="st1" d="M376.1,728.9c7,27,8.6,12,12.4-1c3.1-9,11.8-11.8,3.8,6.1C378.3,789.4,360.6,694.3,376.1,728.9"/>
<path class="st1" d="M544.4,723.6c19.2-11.9,26.1,17.1,17.2,28.8c-6,4.6,0-31-8.1-26.8c-11.6-4.6-6.5,25.1-11.6,27
	C535.6,753.7,536,711.3,544.4,723.6"/>
<path class="st1" d="M637.1,722.2c14.8-0.1,17.2-2.8,2.2,8.3c-3.4,3,4,26.5-6.6,21.6C633.8,745.2,628.5,712.8,637.1,722.2"/>
<path class="st1" d="M662.7,722.2c3.6,7.4-2.4,31.5,14.1,25.9c0.3-4.9,0.3-26.4,2.7-25.9c6.3-8.2,3.6,28,2.7,28.8
	c-1.7,1.7-13.2,1.9-17.2,0.2C657.6,753,652.6,716.6,662.7,722.2"/>
<path class="st1" d="M798.7,722.6c4.8-2.6,14.5-0.7,5.1,4c-5.7,1.9-6.4,3.5-6.7,15c-0.5,12.4,0.1,10.2-5.3,10.5
	C793.2,741.6,786.1,713.7,798.7,722.6"/>
<path class="st1" d="M147.8,725.5c-10.5-14.1-30.7,3.8-23.8,17.3C134.4,766.6,162.1,742.5,147.8,725.5z M133.5,746.1
	c-5.1-3.8-3.2-15.2-0.2-18.6C147.7,716,149.3,756.1,133.5,746.1z"/>
<path class="st1" d="M247.2,722.5c-16.9-10.2-28.7,18.1-15.3,27.4C249.4,763.2,264.3,730.9,247.2,722.5z M245.2,744.9
	c-14.9,13.9-16.9-27.8-0.9-17.4C247.6,729.2,248.2,742.7,245.2,744.9z"/>
<path class="st1" d="M428.8,726.4c-7.1-11.5-23.7-5.1-25.6,8C400.6,763.8,445.1,752.5,428.8,726.4z M422.9,744.9
	c-15.3,13.9-16.5-28.1-0.6-17.4C425.6,729.3,426.5,742.9,422.9,744.9z"/>
<path class="st1" d="M522.7,723.6c-11.8-9.1-28.4,4.1-23.4,18C509.9,768.4,538.8,740.3,522.7,723.6z M517.9,745.1
	c-23.8,13.5-4.9-43,2.1-9.1C520.4,741.9,520.2,742.7,517.9,745.1z"/>
<path class="st1" d="M776.6,726.4c-10.6-15.1-32,1.3-23.5,18C763.5,764.8,790.2,743.2,776.6,726.4z M772.3,742.5
	c-11.1,16.1-18-10-9.7-16.1C771,722.5,775.4,735,772.3,742.5z"/>
<path class="st1" d="M860,729.4c1.3-31.8-5.7-24.9-5-7.7c-8.3-2.1-16.3-0.4-20.4,8.6c-8.9,17.3,12.6,27.2,25.7,20.3
	C860.3,750.7,860,729.4,860,729.4z M850.4,747.6c-24.5,0.2,3-41.7,3.9-11.3C854.2,745.8,853.6,747.6,850.4,747.6z"/>
<path class="st1" d="M898.8,732.9c-22.1-44.1-45.5,37.2-1.9,16.5c-6.5-1.9-20,0.2-19.4-10.2C885.1,738.4,903.4,740.7,898.8,732.9z
	 M879.2,730.7c1.7-11.8,23.7,2.2,6.5,1.9C880,732.6,879.2,732.4,879.2,730.7z"/>
<path class="st1" d="M1086.7,724.8c-33.2-21.9-30.1,45.8,1.5,24.7c-2.9-3.7-20.4,1.4-20-9.9C1076.9,737,1099.4,742.8,1086.7,724.8z
	 M1077.2,732.6c-15.2,0.7-1.1-11.4,4-5C1084.9,731.3,1083.9,732.6,1077.2,732.6z"/>
<path class="st1" d="M197.6,728.7c-4.8,7.7-2,28.1,10.1,14.5C212,736.5,207.5,720.4,197.6,728.7"/>
<path class="st1" d="M313.2,739.8c2.3-20.8-11.4-23.5-21.8-15.9c-0.1,3.4,18.4,0.2,15.8,7.1C260,740.7,318.8,770.5,313.2,739.8z
	 M307,742.9c0.8,10.1-17.4,1.7-9.4-3.5C300.5,738.9,309.7,736.3,307,742.9z"/>
<path class="st1" d="M1009.2,739.9c6.1-32.9-44.9-15.6-7.1-12.3c3.6,3.6,2.7,5.1-3,5.1C962.2,736.5,1012.7,773.2,1009.2,739.9z
	 M1003,742.9c0.8,9.7-15.5,2.4-9.6-3.1C996.2,738.6,1005.7,736.3,1003,742.9z"/>
</svg>
