<?xml version="1.0" encoding="utf-8"?>
<!-- Generator: Adobe Illustrator 25.2.1, SVG Export Plug-In . SVG Version: 6.00 Build 0)  -->
<svg version="1.1" id="svg" xmlns="http://www.w3.org/2000/svg" xmlns:xlink="http://www.w3.org/1999/xlink" x="0px" y="0px"
	 viewBox="0 0 500 500" style="enable-background:new 0 0 500 500;" xml:space="preserve">
<style type="text/css">
	.st0{fill-rule:evenodd;clip-rule:evenodd;fill:#BD1E2D;}
	.st1{fill-rule:evenodd;clip-rule:evenodd;fill:#7E807F;}
	.st2{fill-rule:evenodd;clip-rule:evenodd;fill:#FF7D7D;}
</style>
<g>
	<path class="st0" d="M273.9,37.2c56.6,7.4,97.4,70.2,95.2,124.4c3.7,24.4-43.6,132.3-51,73.9c-31.1-82-141.2-73-183.9-9.6
		c-52.6,69.9-37.6,182.2,39.7,229.6c-39.3-12.2-53.8-21.2-88.1-53.4C-59.3,259,63.4,6.5,273.9,37.2"/>
	<path class="st1" d="M346.4,53.6c161,56.7,81.2,259.2-19.8,255.6c55.2-32.1,79.1-105.9,67.7-164.2c-5-35.9-33.5-76.7-63-97.1
		C331.4,47.4,337.4,49.7,346.4,53.6"/>
	<path class="st1" d="M457.8,165.3c89.4,167.2-154.3,246.5-226.9,151.8c104.9,48.1,236.4-41.4,220.8-158.1
		C449.7,145.1,454.7,159.8,457.8,165.3"/>
	<path class="st1" d="M162.8,313.9c3.9,106.8,146.2,179.7,32.6,140.8c-63.6-36.5-85.9-128.8-40-189.9
		C164.5,245.8,159.2,310.1,162.8,313.9"/>
	<path class="st1" d="M187.9,321.1c37.7,69.8,110.8,111.9,191,107.4C201.9,570.1,149.6,223.8,187.9,321.1"/>
	<path class="st1" d="M217.9,329.5c69.7,61.1,188,52,249.5-19.3c-18.4,58.6-61.7,127.2-132.3,102.7
		C281.9,421.6,162.1,285,217.9,329.5"/>
	<path class="st2" d="M69.4,383.8c0,0.2,0.8,1,1.8,1.8C74.9,388.9,69,381.6,69.4,383.8"/>
</g>
</svg>
