<?xml version="1.0" encoding="utf-8"?>
<!-- Generator: Adobe Illustrator 25.2.1, SVG Export Plug-In . SVG Version: 6.00 Build 0)  -->
<svg version="1.1" id="Capa_1" xmlns="http://www.w3.org/2000/svg" xmlns:xlink="http://www.w3.org/1999/xlink" x="0px" y="0px"
	 viewBox="0 0 128 92" style="enable-background:new 0 0 128 92;" xml:space="preserve">
<style type="text/css">
	.st0{fill:#97989C;}
	.st1{fill:#CE2031;}
</style>
<g>
	<path class="st0" d="M15.3,87.2c0-2.7,0.1-3.2,0.5-2.6c0.2,0.2,0.2,0.2,0.5,0c0.4-0.3,0.9-0.3,1.4,0c0.6,0.3,0.8,0.9,0.7,1.9
		c-0.1,1.1-0.7,1.6-1.7,1.7L16,88.3v0.8c0,0.8,0,0.8-0.4,0.8h-0.4L15.3,87.2L15.3,87.2z M17.1,87.5c1-0.4,0.8-2.5-0.2-2.5
		c-0.6,0-0.9,0.5-0.9,1.5c0,0.5,0,1,0.1,1C16.2,87.7,16.7,87.7,17.1,87.5z"/>
	<path class="st0" d="M4.3,88c-0.6-0.3-1.1-1.1-1.3-1.8c-0.2-1.1,0.3-2.4,1-2.9c0.8-0.5,2.5-0.5,2.5,0.1c0,0.3-0.1,0.3-0.9,0.3
		c-0.7,0-1,0.1-1.3,0.4c-0.4,0.3-0.4,0.4-0.4,1.6s0,1.2,0.4,1.6c0.3,0.3,0.6,0.4,1.3,0.4c1.4,0,1.4,0.6,0,0.7
		C5,88.3,4.7,88.2,4.3,88L4.3,88z"/>
	<path class="st0" d="M8.4,88c-0.2-0.2-0.5-0.5-0.6-0.8c-0.7-1.9,0.9-3.5,2.5-2.5c0.6,0.3,0.8,0.8,0.8,1.7C11,87.9,9.6,88.7,8.4,88z
		 M9.9,87.5c0.3-0.2,0.5-1.3,0.2-1.9c-0.5-1.2-1.9-0.4-1.7,0.9C8.5,87.5,9.2,87.9,9.9,87.5z"/>
	<path class="st0" d="M12.3,86.3c0-1.6,0-1.9,0.2-1.9c0.1,0,0.3,0.1,0.3,0.2c0.1,0.2,0.2,0.2,0.6,0c0.3-0.2,0.5-0.2,0.6-0.1
		c0.2,0.2,0,0.6-0.3,0.6c-0.6,0-0.8,0.5-0.8,1.7c0,1.3-0.1,1.5-0.4,1.5C12.3,88.3,12.3,88.1,12.3,86.3z"/>
	<path class="st0" d="M20.5,88c-1.2-0.6-1.1-2.9,0.1-3.5c0.7-0.3,1.4-0.2,1.9,0.3c0.5,0.5,0.5,0.6,0.5,1.4c0,0.8,0,1-0.5,1.4
		c-0.4,0.4-0.6,0.5-1.1,0.5C21.1,88.2,20.7,88.1,20.5,88L20.5,88z M22,87.4c0.2-0.2,0.3-0.5,0.3-1c0-1.1-0.8-1.7-1.5-1.1
		c-0.4,0.3-0.4,1.8,0,2.2C21,87.8,21.6,87.7,22,87.4L22,87.4z"/>
	<path class="st0" d="M24.3,86.4c0-1.9,0.1-2.3,0.5-1.8c0.2,0.2,0.2,0.2,0.6,0c0.5-0.2,0.8-0.2,0.8,0.2c0,0.2-0.1,0.3-0.3,0.3
		c-0.6,0-0.9,0.4-0.9,1.7c-0.1,1.2-0.1,1.3-0.4,1.3C24.3,88.3,24.3,88.2,24.3,86.4z"/>
	<path class="st0" d="M27.6,88c-0.5-0.3-0.6-0.8-0.4-1.4c0.2-0.5,0.7-0.8,1.5-0.8c0.6,0,0.8-0.2,0.3-0.7C28.8,85,28.5,85,28.1,85
		c-0.5,0-0.7,0-0.7-0.2c-0.1-0.3,0.2-0.5,1-0.5c0.5,0,0.8,0.1,1.1,0.4c0.4,0.3,0.4,0.4,0.4,1.8c0,1.4,0,1.4-0.3,1.6
		C29,88.3,28,88.3,27.6,88L27.6,88z M29.2,87c0-0.6,0-0.6-0.5-0.6c-0.6,0-0.9,0.2-0.9,0.6c0,0.4,0.3,0.6,0.9,0.6
		C29.1,87.6,29.1,87.5,29.2,87z"/>
	<path class="st0" d="M31.9,88.1c-0.4-0.2-0.5-0.5-0.5-1.9c0-1-0.1-1.1-0.3-1.1c-0.1,0-0.3,0-0.3,0c0-0.2,1.1-1.4,1.2-1.4
		c0.1,0,0.1,0.2,0.2,0.4c0,0.3,0.1,0.4,0.4,0.4c0.5,0,0.5,0.6,0,0.6c-0.4,0-0.4,0.1-0.4,1.2c0,1.2,0.1,1.3,0.8,1.3
		c0.2,0,0.3,0.1,0.2,0.3C33.1,88.2,32.4,88.3,31.9,88.1L31.9,88.1z"/>
	<path class="st0" d="M34.4,86.8c0-1.2,0-1.5-0.2-1.7c-0.3-0.2-0.2-0.6,0.3-0.6c0.2,0,0.4,0,0.5,0.1c0.2,0,0.2,0.4,0.2,1.8
		c0,1.8-0.1,1.8-0.4,1.8C34.4,88.3,34.4,88.2,34.4,86.8z"/>
	<path class="st0" d="M37.5,88c-0.2-0.4-1.3-3.3-1.3-3.5c0-0.1,0.2-0.1,0.4-0.1c0.4,0,0.4,0.2,0.8,1.4c0.2,0.7,0.5,1.4,0.5,1.4
		c0,0,0.3-0.6,0.5-1.4c0.3-1,0.5-1.4,0.7-1.4c0.2,0,0.3,0,0.4,0.1c0.1,0.1-0.2,0.9-0.6,1.9c-0.5,1.4-0.8,1.8-1,1.8
		C37.8,88.2,37.6,88.2,37.5,88L37.5,88z"/>
	<path class="st0" d="M41.3,88.1c-0.6-0.3-0.8-0.8-0.8-1.7c0-0.9,0.3-1.5,0.8-1.8c1.4-0.7,2.9,0.6,2.5,2.2
		C43.5,88,42.2,88.6,41.3,88.1z M42.7,87.4c0.2-0.2,0.3-0.5,0.3-1s-0.1-0.8-0.3-1c-0.7-0.7-1.5-0.1-1.5,1
		C41.2,87.5,42,88.1,42.7,87.4z"/>
	<path class="st0" d="M48.2,87.9c-0.8-0.4-1.2-1.2-1.2-2.3c0-1.8,1-2.8,2.6-2.7c0.9,0.1,1,0.2,0.9,0.5c-0.1,0.2-0.3,0.2-0.9,0.2
		c-0.7,0-0.9,0.1-1.2,0.4c-0.8,0.8-0.7,2.5,0.1,3.1c0.3,0.2,0.6,0.3,1.2,0.3s0.8,0,1,0.2C50.9,88.3,49.1,88.4,48.2,87.9L48.2,87.9z"
		/>
	<path class="st0" d="M52.6,88.1c-0.6-0.2-1-0.9-1-1.8c0-0.8,0-0.9,0.5-1.4c0.6-0.6,1.3-0.7,2-0.3c1.1,0.6,1.2,2.7,0.1,3.3
		C53.7,88.3,53.1,88.3,52.6,88.1L52.6,88.1z M53.9,87.4c0.5-0.6,0.5-1.8-0.1-2.2c-0.8-0.5-1.5,0.2-1.3,1.5
		C52.5,87.6,53.4,88,53.9,87.4L53.9,87.4z"/>
	<path class="st0" d="M56.3,88.2c-0.1,0-0.1-0.9-0.1-1.8c0-1.5,0-1.8,0.2-1.8c0.2-0.1,0.3,0,0.4,0.1c0.2,0.2,0.2,0.2,0.5,0
		c0.6-0.3,1.2-0.2,1.6,0.2c0.3,0.3,0.4,0.5,0.4,1.9c0,1.6,0,1.6-0.3,1.5s-0.3-0.1-0.4-1.4c0-0.7-0.1-1.4-0.2-1.5
		c-0.1-0.1-0.4-0.2-0.6-0.2c-0.6,0-0.9,0.7-0.9,2.1c0,0.9,0,1-0.3,1C56.5,88.3,56.4,88.2,56.3,88.2L56.3,88.2z"/>
	<path class="st0" d="M60.7,88.1c-0.1-0.1-0.2-0.2-0.1-0.4c0.1-0.2,0.2-0.2,0.7-0.2c0.5,0.1,0.7,0,0.9-0.2c0.3-0.3,0.2-0.5-0.6-0.9
		c-0.8-0.4-0.9-0.5-0.9-1.1c0-0.6,0.5-1,1.2-1c0.8,0,1.2,0.2,1.2,0.4c0,0.2-0.2,0.2-0.8,0.2c-0.6,0-0.7,0-0.7,0.3
		c0,0.2,0.2,0.4,0.7,0.7c0.9,0.5,1.1,1,0.8,1.6c-0.1,0.2-0.4,0.4-0.6,0.5C61.9,88.3,61,88.3,60.7,88.1L60.7,88.1z"/>
	<path class="st0" d="M64.8,88c-0.3-0.2-0.3-0.3-0.3-1.6s0-1.3-0.3-1.3c-0.4,0-0.4-0.2,0.2-0.9c0.6-0.7,0.8-0.8,0.8-0.3
		c0,0.3,0.1,0.4,0.4,0.4c0.3,0,0.4,0.1,0.4,0.3s-0.1,0.3-0.4,0.3c-0.4,0-0.4,0.1-0.4,1.1c0,1.1,0.2,1.5,0.7,1.4
		c0.2-0.1,0.4,0.3,0.3,0.5C66.1,88.3,65.2,88.3,64.8,88z"/>
	<path class="st0" d="M67.3,88.2c-0.1,0-0.1-0.9-0.1-1.8c0-1.5,0-1.8,0.2-1.8c0.2-0.1,0.3,0,0.4,0.1c0.2,0.2,0.2,0.2,0.6,0
		c0.5-0.3,0.8-0.2,0.8,0.2c0,0.2-0.1,0.3-0.3,0.3c-0.6,0-0.9,0.5-1,1.8c-0.1,1.1-0.1,1.3-0.3,1.3C67.5,88.3,67.3,88.2,67.3,88.2
		L67.3,88.2z"/>
	<path class="st0" d="M70.9,88c-0.5-0.3-0.7-1.1-0.7-2.5c0-1,0.1-1.1,0.4-1.1c0.4,0,0.4,0,0.4,1.9c0,0.9,0,1,0.4,1.2
		c0.2,0.1,0.6,0.1,0.7,0.1c0.3-0.1,0.3-0.2,0.4-1.6c0-1.4,0.1-1.5,0.4-1.6c0.3,0,0.3,0,0.3,1.8c0,1.8,0,1.8-0.3,1.9
		C72.4,88.3,71.3,88.2,70.9,88L70.9,88z"/>
	<path class="st0" d="M75.3,88c-0.6-0.3-0.9-1.2-0.8-2c0.1-0.5,0.2-0.8,0.6-1.2c0.5-0.4,0.6-0.5,1.3-0.4c0.7,0,0.8,0.1,0.8,0.3
		s-0.1,0.3-0.5,0.2c-0.4,0-0.7,0-0.9,0.3c-0.3,0.3-0.4,0.4-0.4,1s0.1,0.8,0.4,1c0.3,0.2,0.5,0.3,1,0.2c0.5-0.1,0.6-0.1,0.5,0.2
		c0,0.3-0.1,0.3-0.8,0.4C76,88.2,75.6,88.2,75.3,88L75.3,88z"/>
	<path class="st0" d="M78.9,87.9c-0.3-0.3-0.3-0.5-0.3-1.6c0-1.2,0-1.3-0.3-1.3c-0.4,0-0.4-0.1,0.2-0.8c0.7-0.8,0.8-0.8,0.8-0.3
		c0,0.3,0.1,0.4,0.4,0.4c0.3,0,0.4,0.1,0.4,0.4c0,0.3,0,0.3-0.4,0.3h-0.5v1.1c0,1.2,0.2,1.5,0.7,1.4c0.2,0,0.3,0,0.3,0.2
		C80.3,88.3,79.4,88.4,78.9,87.9z"/>
	<path class="st0" d="M81.9,88c-1.1-0.7-1-2.8,0.1-3.3c0.8-0.4,1.4-0.3,2,0.3c0.5,0.5,0.5,0.6,0.5,1.4c0,0.8,0,1-0.5,1.4
		C83.4,88.3,82.7,88.4,81.9,88L81.9,88z M83.4,87.5c0.5-0.4,0.5-1.8,0-2.2c-0.6-0.6-1.4,0-1.4,1.1C82,87.4,82.7,88,83.4,87.5z"/>
	<path class="st0" d="M85.9,86.3c0-1.8,0-1.9,0.3-1.9c0.2,0,0.3,0.1,0.3,0.2c0,0.3,0.1,0.3,0.5,0c0.2-0.1,0.5-0.2,0.6-0.2
		c0.3,0.1,0.3,0.7,0,0.7c-0.7,0-0.8,0.4-0.9,1.7c-0.1,1.2-0.1,1.3-0.4,1.3C85.9,88.3,85.9,88.3,85.9,86.3L85.9,86.3z"/>
	<path class="st0" d="M91.7,88.1c-0.6-0.3-0.9-0.9-0.9-1.6c0-1.3,0.8-2.1,2-2.1h0.6v-0.7c0-0.7,0-0.7,0.4-0.7H94v2.6
		c0,2.6,0,2.6-0.3,2.7C93.1,88.3,92,88.2,91.7,88.1L91.7,88.1z M93.3,86.4c0-1.1,0-1.2-0.2-1.3c-0.2,0-0.5,0-0.7,0
		c-1.3,0.3-1,2.7,0.4,2.6l0.5,0L93.3,86.4L93.3,86.4z"/>
	<path class="st0" d="M96.1,88c-0.8-0.4-1.1-1.6-0.7-2.6c0.7-1.6,3.1-1.2,3.1,0.5c0,0.7,0.1,0.7-1.7,0.7c-0.5,0-0.6,0.1-0.6,0.4
		c0,0.5,0.6,0.8,1.4,0.7c0.5-0.1,0.6,0,0.7,0.2c0,0.2,0,0.3-0.1,0.4C97.8,88.3,96.5,88.3,96.1,88L96.1,88z M97.7,85.7
		c0-0.3-0.5-0.7-0.8-0.7c-0.4,0-0.8,0.4-0.8,0.7c0,0.1,0.2,0.2,0.8,0.2C97.4,85.9,97.7,85.8,97.7,85.7z"/>
	<path class="st0" d="M100.1,88c-0.3-0.3-0.4-0.3-0.4-2.6V83l0.4,0l0.4,0v2.3v2.3l0.4,0.1c0.2,0.1,0.4,0.2,0.4,0.4
		C101.3,88.4,100.6,88.4,100.1,88L100.1,88z"/>
	<path class="st0" d="M105.6,88.2c-0.1-0.2-1.6-4.8-1.6-5c0-0.2,0.5-0.3,0.7,0c0.1,0.1,0.4,1.1,0.7,2.2l0.6,2l0.3-1.1
		c0.8-2.7,1-3.2,1.3-3.2c0.2,0,0.3,0,0.4,0.1c0.1,0.1-0.3,1.3-0.7,2.6c-0.8,2.4-0.9,2.5-1.2,2.6C105.8,88.3,105.6,88.2,105.6,88.2
		L105.6,88.2z"/>
	<path class="st0" d="M108.9,87.9c-0.3-0.3-0.4-0.5-0.3-0.9c0.1-0.8,0.6-1.1,1.4-1.1c0.8,0,0.9-0.2,0.4-0.7
		c-0.2-0.2-0.4-0.2-0.9-0.2c-0.5,0.1-0.6,0-0.7-0.2c-0.1-0.3,0.2-0.5,0.9-0.5c0.8,0,1.3,0.2,1.5,0.7c0.1,0.2,0.2,0.9,0.2,1.7v1.3
		l-0.5,0.1C110,88.4,109.3,88.3,108.9,87.9L108.9,87.9z M110.8,87l0-0.6h-0.6c-0.4,0-0.6,0.1-0.8,0.3c-0.2,0.4-0.2,0.4,0.1,0.7
		c0.2,0.2,0.4,0.2,0.7,0.2C110.7,87.6,110.7,87.5,110.8,87L110.8,87z"/>
	<path class="st0" d="M113.2,88c-0.3-0.2-0.3-0.3-0.3-2.7v-2.4h0.4h0.4l0,2.3c0,2.2,0.1,2.2,0.4,2.4c0.2,0.1,0.3,0.3,0.3,0.4
		C114.4,88.3,113.7,88.3,113.2,88z"/>
	<path class="st0" d="M115.7,88c-0.3-0.3-0.4-0.4-0.4-2.3c0-2.6,0-2.7,0.5-2.7h0.4v2.3v2.3l0.4,0.1c0.2,0.1,0.4,0.2,0.4,0.4
		C116.9,88.4,116.1,88.4,115.7,88L115.7,88z"/>
	<path class="st0" d="M118.5,88c-1.1-0.6-1.2-2.6-0.1-3.4c0.4-0.3,1.3-0.3,1.8-0.1c0.2,0.1,0.4,0.4,0.5,0.6c0.2,0.4,0.3,1.3,0.1,1.3
		c-0.1,0-0.6,0-1.2,0c-0.6,0-1.1,0-1.1,0.1c0,0,0,0.2,0.1,0.4c0.2,0.4,0.8,0.7,1.5,0.6c0.4-0.1,0.6,0,0.6,0.1
		C120.8,88.2,119.3,88.4,118.5,88L118.5,88z M120.1,85.8c0-0.3-0.5-0.8-0.8-0.8c-0.4,0-0.6,0.1-0.8,0.6c-0.2,0.3-0.2,0.3,0.7,0.3
		C119.7,85.9,120.1,85.8,120.1,85.8z"/>
	<path class="st0" d="M34.4,83.7c-0.1,0-0.1-0.2-0.1-0.4c0-0.3,0.1-0.3,0.4-0.3c0.2,0,0.4,0.1,0.4,0.2C35.2,83.6,34.7,84,34.4,83.7
		L34.4,83.7z"/>
	<path class="st0" d="M8.7,78.5c-3.6-0.8-6.6-3.8-7.4-7.3C1,70,1,67.5,1.3,66.3c0.8-3.6,3.9-6.6,7.5-7.4c1.3-0.3,3.4-0.3,4.5,0
		c1.2,0.3,2.8,1.1,3.9,2c1,0.8,2.5,2.7,2.4,3c0,0.1-0.7,0.6-1.5,1.1l-1.5,0.9l-0.4-0.6c-1.2-1.8-3.1-2.9-5.2-2.9
		c-3.2,0-5.7,2.2-6.2,5.5c-0.3,2.2,0.3,4.2,1.9,5.7c1.4,1.3,2.2,1.6,4.2,1.7c0.9,0,1.7-0.1,2.1-0.2c1-0.4,2.2-1.3,2.9-2.2l0.6-0.9
		l1.5,0.9c0.9,0.5,1.5,0.9,1.5,1s-0.3,0.5-0.6,1c-1.3,1.7-3.2,3.1-5.1,3.7C12.6,78.7,10,78.8,8.7,78.5z"/>
	<path class="st0" d="M29.7,78.5c-1.4-0.3-2.1-0.6-3.4-1.4c-2-1.3-3.6-3.7-4.1-6c-0.3-1.4-0.3-3.6,0.1-5c0.8-3.2,3.3-5.8,6.5-7
		c1.3-0.4,4-0.6,5.3-0.2c3.6,0.9,6.4,3.7,7.3,7.3c0.3,1.2,0.3,3.9,0,5c-0.7,2.7-2.7,5.2-5.1,6.4C34.3,78.7,31.9,79,29.7,78.5
		L29.7,78.5z M34.5,74.6c1.2-0.6,2.5-1.9,3-3c0.8-1.7,0.8-4,0-5.7c-0.7-1.6-2.4-3-4-3.4c-4.5-1.2-8.5,2.6-7.8,7.2
		c0.2,1.4,0.7,2.5,1.6,3.4c1.5,1.5,2.8,2.1,4.9,2C33.3,75.1,33.6,75,34.5,74.6L34.5,74.6z"/>
	<path class="st0" d="M51.8,78.5c-2.9-0.6-5.3-2.6-6.7-5.3c-0.9-1.8-1.2-3.2-1-5.1c0.2-2.6,1-4.6,3-6.5c1-1,1.5-1.3,2.5-1.8
		c1.9-0.9,2.8-1.1,5-1c2.7,0.1,4.4,0.8,6.4,2.7c0.9,0.8,1.9,2.1,1.9,2.4c0,0.1-0.8,0.6-2.4,1.5l-0.7,0.4l-0.5-0.8
		c-0.6-1-1.5-1.7-2.7-2.3c-0.8-0.4-1-0.4-2.4-0.4s-1.7,0-2.4,0.4c-2.4,1.1-3.7,3.1-3.7,5.8c0,1.7,0.2,2.6,1,3.8
		c1.5,2.3,4.5,3.3,7.1,2.5c1.2-0.4,2.2-1.1,3-2.2l0.7-0.9l1.5,0.9c0.8,0.5,1.5,0.9,1.6,0.9c0.2,0.2-1.4,2.1-2.3,2.8
		C58,78.4,54.9,79.2,51.8,78.5L51.8,78.5z"/>
	<path class="st0" d="M72.5,78.5c-3.7-0.8-6.8-4.1-7.5-8c-0.6-3.4,0.4-6.5,2.8-8.9c1.3-1.3,2.9-2.2,4.6-2.7c1.1-0.3,3.6-0.3,4.6-0.1
		c3.2,0.8,6.1,3.4,7.2,6.6c0.5,1.3,0.6,4.3,0.2,5.8c-0.6,2.6-2.7,5.2-5.1,6.4c-0.7,0.3-1.7,0.7-2.3,0.8
		C75.8,78.8,73.8,78.8,72.5,78.5L72.5,78.5z M77.2,74.8c1.5-0.6,3-2.2,3.6-3.8c0.4-1.1,0.4-3.1,0-4.2c-0.6-1.7-1.8-3.1-3.5-3.9
		c-0.9-0.4-1.1-0.5-2.5-0.5c-1.5,0-1.6,0-2.6,0.5c-2.6,1.3-3.9,4-3.5,7c0.3,2.3,2.2,4.4,4.4,5.1C74.2,75.3,76,75.2,77.2,74.8
		L77.2,74.8z"/>
	<path class="st0" d="M93.1,78.1c-0.1-0.2-0.3-0.9-0.6-1.8c-0.6-1.7-2.4-6.9-4.5-12.7c-0.8-2.3-1.5-4.2-1.5-4.3
		c0-0.1,0.7-0.1,1.9-0.1l1.9,0l0.3,0.7c0.2,0.4,1.2,3.3,2.3,6.5c1.1,3.2,2.1,5.8,2.1,5.8c0,0,0.1,0,0.1,0c0,0,1.1-2.8,2.2-6.1
		c1.2-3.3,2.2-6.2,2.3-6.5l0.2-0.5l1.9,0l1.9,0l-0.1,0.3c-0.1,0.4-6.5,18.1-6.7,18.6c-0.1,0.2-0.3,0.2-1.8,0.2
		C93.4,78.3,93.2,78.3,93.1,78.1L93.1,78.1z"/>
	<path class="st0" d="M102.8,78.2c0-0.1,0.7-2,4.9-12.9c1.3-3.3,2.3-6,2.3-6s0.8-0.1,1.9-0.1h1.8l0.3,0.6c0.2,0.3,1,2.6,1.9,4.9
		c0.9,2.4,2.4,6.4,3.4,8.9l1.8,4.6l-1.9,0c-1,0-1.9,0-1.9,0c0-0.1-1.7-4.2-4.7-12.2c-0.3-0.9-0.7-1.6-0.7-1.6c0,0-0.7,1.4-1.3,3.2
		l-1.2,3.2l0.8,1.7c0.5,0.9,0.8,1.7,0.8,1.7c0,0-0.7,0.1-1.5,0.1l-1.5,0l-0.8,1.9l-0.8,1.9l-1.9,0C103.6,78.3,102.8,78.3,102.8,78.2
		L102.8,78.2z"/>
	<path class="st0" d="M124.7,78c-0.7-0.3-1.1-0.9-1.1-1.7c0-1.3,1.3-2.2,2.5-1.7c0.6,0.3,1.2,1.1,1.2,1.7c0,0.5-0.5,1.3-1.1,1.7
		C125.6,78.2,125.3,78.2,124.7,78z M126.4,77.2c0.7-0.7,0.4-1.9-0.6-2.3c-0.5-0.2-1.3,0.1-1.6,0.5c-0.3,0.4-0.3,1.2-0.1,1.6
		c0.2,0.4,1,0.7,1.5,0.6C125.8,77.6,126.2,77.4,126.4,77.2z"/>
	<path class="st0" d="M124.7,76.2v-0.9l0.6,0c0.5,0,0.6,0.1,0.6,0.7c0,0.3,0,0.7,0.1,0.7c0.1,0.1,0.1,0.2,0.1,0.2
		c0,0.2-0.3,0.1-0.6-0.2l-0.3-0.3l0,0.3c0,0.2-0.1,0.3-0.2,0.3C124.8,77.1,124.7,76.9,124.7,76.2L124.7,76.2z M125.5,75.9
		c0-0.1-0.1-0.2-0.2-0.2c-0.1,0-0.2,0.1-0.2,0.2s0.1,0.2,0.2,0.2C125.4,76.1,125.5,76,125.5,75.9z"/>
	<path class="st0" d="M58.9,52.3c-2.3-0.4-3.2-0.7-4.1-1.3c-3.9-2.6-6.3-6.6-6.9-11.3c-0.4-3.6,0.7-7.8,2.8-10.6
		c0.3-0.4,0.6-0.7,0.6-0.7c0,0,0.1,0.8,0,1.7c-0.2,7.8,3,15.5,8.7,21l1.5,1.4l-0.8,0C60.3,52.5,59.5,52.4,58.9,52.3L58.9,52.3z"/>
	<path class="st0" d="M63,51.7c-4.9-4-8.2-9.4-9.5-15.4c-0.3-1.4-0.7-4.4-0.6-4.5c0,0,0.2,0.4,0.4,0.9c1.1,3.1,3.3,6.5,5.9,8.9
		c4.5,4.3,10.2,6.6,16.2,6.7c0.9,0,1.7,0,1.7,0.1c0,0.1-1.9,1.2-3.3,1.9c-2.2,1.1-6.6,2.2-8.7,2.2C64,52.5,64,52.5,63,51.7z"/>
	<path class="st0" d="M51,50.7c-2.8-1.2-4.6-2.3-6.9-4.2c-1.6-1.4-3.6-3.6-4.6-5.2c-2.5-3.9-3.5-6.8-4.1-10.9
		c-0.2-1.9-0.1-6.2,0.3-8.1C37.2,15,41.9,8.8,48.5,5.1c1.3-0.7,4-1.8,5.5-2.2c2.3-0.6,4.7-0.9,7.2-0.8c5.8,0.2,8.9,1.7,11.7,5.8
		c1.7,2.5,2.6,5.4,2.6,8.7c0,2.9-0.7,5.6-2.2,7.9c-0.8,1.2-2.6,3.5-2.8,3.5c-0.1,0-0.1-0.1-0.1-0.3c0-0.5-0.7-2.3-1.2-3.3
		c-1-1.8-2.9-3.7-4.7-4.7c-2.1-1.1-5.5-1.5-8-0.8c-5.3,1.4-9,5.2-11.1,11.3c-2.5,7.5,0,15.6,6.2,20.3c0.7,0.5,1.3,1,1.3,1
		C53,51.5,52.7,51.4,51,50.7L51,50.7z"/>
	<path class="st0" d="M72.2,46.5c-2.3-0.4-4.8-1.2-6.8-2.2c-2.6-1.3-5.9-4.1-7.7-6.6c-0.8-1-2.2-3.5-2.2-3.7c0,0,0.6,0.5,1.3,1.2
		c4,4,9.1,6.1,14.7,6.1c5.5,0,10.5-2,14.5-5.9c0.7-0.7,1.2-1.1,1.2-1.1c0,0.3-1,2.9-1.5,4c-1.3,2.6-2.9,4.8-5.1,7
		c-1,1-1.2,1.1-1.8,1.2C77.7,46.8,73.5,46.7,72.2,46.5L72.2,46.5z"/>
	<path class="st0" d="M69.3,39.8c-0.1,0-0.7-0.1-1.3-0.2c-2.2-0.4-5.1-1.6-7.2-3c-1.1-0.7-2.5-1.9-2.4-2c0,0,0.6,0.2,1.2,0.5
		c2.3,1,4.8,1.4,7.8,1.4c4.7,0,9-1.7,12.4-4.9c2.5-2.4,4.5-5.8,5.2-9.1c0.3-1.4,0.5-4,0.4-5.4c-0.1-0.7-0.1-1.3-0.1-1.3
		c0.1-0.1,1.1,2.2,1.6,3.8c0.9,2.7,1.2,4.5,1.2,7.8c0,3.3,0,3.1-1.3,5c-2.2,2.9-5.4,5.3-8.8,6.5c-2.2,0.8-3.3,1-6,1
		C70.6,39.8,69.4,39.8,69.3,39.8L69.3,39.8z"/>
	<path class="st0" d="M69.4,34.9c0,0,0.4-0.3,1-0.6c3.6-2,6.1-5.3,7.7-10c0.8-2.3,0.9-3.3,0.9-6c0-2.1-0.1-2.6-0.4-4
		c-1-4.1-3.2-7.4-6.3-9.9c-0.6-0.5-1-0.9-0.9-0.9c0.1,0,0.6,0.2,1.2,0.4c3,1.2,6,3.2,8.4,5.6c1.2,1.2,1.4,1.5,1.8,2.6
		c0.9,2.2,1.1,3.3,1.2,5.7c0.1,3.2-0.3,5.2-1.7,8c-2.1,4.3-5.7,7.2-10.4,8.6C70.5,34.8,69.4,35.1,69.4,34.9L69.4,34.9z"/>
</g>
<g>
	<path class="st1" d="M51.7,51c-4.8-1.8-9.6-5.6-12.2-9.7c-2.5-3.9-3.5-6.8-4.1-10.9c-0.2-1.9-0.1-6.2,0.3-8.1
		C37.2,15,41.9,8.8,48.5,5.1c1.3-0.7,4-1.8,5.5-2.2c2.3-0.6,4.7-0.9,7.2-0.8c5.8,0.2,8.9,1.7,11.7,5.8c1.7,2.5,2.6,5.4,2.6,8.7
		c0,2.9-0.7,5.6-2.2,7.9c-0.8,1.2-2.6,3.5-2.8,3.5c-0.1,0-0.1-0.1-0.1-0.3c0-0.5-0.7-2.3-1.2-3.4c-1-1.9-3-3.8-4.9-4.8
		c-2.1-1-5.3-1.4-7.7-0.7c-5.4,1.4-9.1,5.2-11.2,11.3c-2.5,7.5,0,15.6,6.2,20.3c1.1,0.8,1.4,1.1,1.3,1.1
		C52.9,51.5,52.3,51.3,51.7,51L51.7,51z"/>
</g>
</svg>
